<?xml version="1.0" encoding="utf-8"?>
<!-- Generator: Adobe Illustrator 24.2.0, SVG Export Plug-In . SVG Version: 6.00 Build 0)  -->
<svg version="1.1" id="Layer_1" xmlns="http://www.w3.org/2000/svg" xmlns:xlink="http://www.w3.org/1999/xlink" x="0px" y="0px"
	 viewBox="0 0 100 100" style="enable-background:new 0 0 100 100;" xml:space="preserve">
<style type="text/css">
	.st0{clip-path:url(#SVGID_2_);fill:#EE984B;}
	.st1{clip-path:url(#SVGID_4_);fill:#EE984B;}
	.st2{clip-path:url(#SVGID_6_);fill:#EE984B;}
	.st3{clip-path:url(#SVGID_8_);fill:#EE984B;}
	.st4{clip-path:url(#SVGID_10_);fill:#EE984B;}
	.st5{clip-path:url(#SVGID_12_);fill:#EE984B;}
	.st6{clip-path:url(#SVGID_14_);fill:#EE984B;}
	.st7{clip-path:url(#SVGID_16_);fill:#EE984B;}
	.st8{clip-path:url(#SVGID_18_);fill:#EE984B;}
	.st9{clip-path:url(#SVGID_20_);fill:#EE984B;}
	.st10{clip-path:url(#SVGID_22_);fill:#EE984B;}
	.st11{clip-path:url(#SVGID_24_);fill:#EE984B;}
</style>
<g>
	<g>
		<g>
			<defs>
				<rect id="SVGID_1_" x="11.8" width="76.4" height="99.5"/>
			</defs>
			<clipPath id="SVGID_2_">
				<use xlink:href="#SVGID_1_"  style="overflow:visible;"/>
			</clipPath>
			<path class="st0" d="M78.6,56.7c-2,3.1-2.6,6.8-1.8,10.4l-26,10.5c-1.9-3.1-4.9-5.3-8.4-6.1c-10.8-2.5-19.8-10.1-24-20.4
				c-3.4-8.4-3.3-17.7,0.3-26.2c3.6-8.4,10.3-15,18.7-18.3c17.5-6.9,37.3,1.7,44.3,19.3C85.8,35.9,84.6,47.5,78.6,56.7L78.6,56.7z
				 M81.8,79.8c0.6,1.6-0.1,3.2-1.7,3.9l-20.2,8.2c-1.6,0.6-3.2-0.1-3.9-1.7l-3.6-9l25.8-10.4L81.8,79.8z M72.8,94.8
				c-2.6,1-5.5,0.8-7.9-0.6L78,88.9C77.3,91.6,75.4,93.7,72.8,94.8 M65,3.1C55.8-0.8,45.3-1,36,2.7l-0.3,0.1
				C26.3,6.5,19,13.7,15,23.1c-4.1,9.5-4.2,19.9-0.4,29.3c4.8,11.7,14.8,20.2,26.9,23c2.9,0.7,5.3,2.7,6.5,5.5l4.4,10.8
				c1.4,3.3,5,5.1,8.4,4.2c5.1,4.9,13.1,4.8,18.1-0.2c2.2-2.3,3.5-5.3,3.6-8.5c3.1-1.7,4.5-5.5,3.1-8.9l-4.4-10.8
				c-1.1-2.8-0.8-6,0.8-8.5c11.5-17.7,6.4-41.4-11.4-52.8C68.9,5,67,4,65,3.1L65,3.1z"/>
		</g>
	</g>
	<g>
		<g>
			<defs>
				<rect id="SVGID_3_" x="11.8" width="76.4" height="99.5"/>
			</defs>
			<clipPath id="SVGID_4_">
				<use xlink:href="#SVGID_3_"  style="overflow:visible;"/>
			</clipPath>
			<path class="st1" d="M62,43.7l-16.9,6.8c-1,0.4-1.6,1.6-1.1,2.6c2.3,5.7,8.7,8.4,14.5,6.1s8.4-8.7,6.1-14.5
				C64.2,43.7,63.1,43.3,62,43.7"/>
		</g>
	</g>
	<g>
		<g>
			<defs>
				<rect id="SVGID_5_" x="11.8" width="76.4" height="99.5"/>
			</defs>
			<clipPath id="SVGID_6_">
				<use xlink:href="#SVGID_5_"  style="overflow:visible;"/>
			</clipPath>
			<path class="st2" d="M62.7,32.8c-2.8,1.1-4.3,4.4-3.1,7.3c0.4,1,1.6,1.6,2.6,1.1c1-0.4,1.6-1.6,1.1-2.6c-0.3-0.7,0-1.7,0.7-2
				s1.7,0,2,0.7v0.1c0.4,1,1.6,1.6,2.6,1.1c1-0.4,1.6-1.6,1.1-2.6C68.9,33,65.6,31.7,62.7,32.8"/>
		</g>
	</g>
	<g>
		<g>
			<defs>
				<rect id="SVGID_7_" x="11.8" width="76.4" height="99.5"/>
			</defs>
			<clipPath id="SVGID_8_">
				<use xlink:href="#SVGID_7_"  style="overflow:visible;"/>
			</clipPath>
			<path class="st3" d="M44.3,46.2c-1.1-2.9-4.4-4.3-7.2-3.2c-2.9,1.1-4.3,4.4-3.2,7.3c0,0.1,0.1,0.1,0.1,0.2c0.4,1,1.6,1.6,2.6,1.1
				c1-0.4,1.6-1.6,1.1-2.6c-0.3-0.7,0-1.7,0.7-2s1.7,0,2,0.7v0.1c0.4,1,1.6,1.6,2.6,1.1C44.2,48.5,44.7,47.3,44.3,46.2"/>
		</g>
	</g>
	<g>
		<g>
			<defs>
				<rect id="SVGID_9_" x="11.8" width="76.4" height="99.5"/>
			</defs>
			<clipPath id="SVGID_10_">
				<use xlink:href="#SVGID_9_"  style="overflow:visible;"/>
			</clipPath>
			<path class="st4" d="M80.4,32.6c-0.2-0.3-0.6-0.4-0.9-0.2c0,0-0.1,0-0.1,0.1c-1.1,0.7-2.7,0.5-3.3,0.4c-0.2-0.6-0.5-1.2-0.8-1.9
				c0.4-0.1,1-0.4,1.6-0.7c0.6-0.4,1.1-0.9,1.6-1.7c0.2-0.3,0-0.7-0.3-0.9c-0.3-0.2-0.7,0-0.9,0.3c-0.5,1-2,1.6-2.6,1.8
				c-0.3-0.4-0.7-0.8-1.1-1.2c0.6-0.7,1.5-2.3,1.2-4.1c0-0.4-0.4-0.6-0.7-0.5c-0.3,0-0.6,0.4-0.5,0.7c0.2,1.2-0.5,2.4-0.9,2.9
				c-2.7-2.1-6-2.7-9.5-1.7c-8.5,2.5-7.6,11.5-7.6,11.6c0,0.4,0.4,0.6,0.7,0.6c0.3,0,0.6-0.4,0.6-0.7s-0.8-7.9,6.7-10.1
				c4.3-1.2,7.2,0.5,8.7,1.8l0,0l0,0c0.1,0,0.1,0.1,0.2,0.1c2.3,2.1,3.5,5.2,3.1,7.8c-0.1,0.3,0.2,0.7,0.5,0.7c0.2,0,0.3,0,0.5-0.1
				c0.1-0.1,0.2-0.2,0.3-0.4c0.2-0.9,0.1-2-0.1-2.9c0.9,0.1,2.4,0.1,3.6-0.7c0,0,0.1,0,0.1-0.1C80.6,33.3,80.7,32.9,80.4,32.6"/>
		</g>
	</g>
	<g>
		<g>
			<defs>
				<rect id="SVGID_11_" x="11.8" width="76.4" height="99.5"/>
			</defs>
			<clipPath id="SVGID_12_">
				<use xlink:href="#SVGID_11_"  style="overflow:visible;"/>
			</clipPath>
			<path class="st5" d="M33.4,39c-3,1.9-4.9,4.8-5.2,8.1c-0.7-0.1-2.1-0.3-2.8-1.2c-0.2-0.3-0.6-0.3-0.9-0.1s-0.3,0.6-0.1,0.9
				c1.1,1.4,2.8,1.7,3.9,1.8c0,0.6,0.1,1.1,0.2,1.7c-0.6,0.3-2,1-3.2,0.7c-0.3-0.1-0.7,0.1-0.8,0.5c-0.1,0.3,0.1,0.7,0.5,0.8
				c0.8,0.2,1.6,0.2,2.3,0c0.6-0.1,1.1-0.4,1.6-0.6c0.2,0.7,0.5,1.4,0.8,2c-0.3,0.5-1.1,1.9-2.5,2.2h-0.1c-0.3,0.1-0.5,0.4-0.5,0.8
				c0.1,0.3,0.4,0.6,0.8,0.5h0.1c1.5-0.3,2.4-1.5,3-2.2c0.6,0.8,1.4,1.6,2.1,2.1c0.2,0.1,0.3,0.1,0.5,0.1s0.3-0.1,0.4-0.3
				c0.2-0.3,0.1-0.7-0.2-0.9c-2.2-1.5-3.6-4.5-3.6-7.6c0-0.1,0-0.1,0-0.2l0,0l0,0c0.1-2,0.8-5.3,4.6-7.6c6.7-4.1,11.8,1.7,12,2
				s0.6,0.3,0.9,0.1s0.3-0.6,0.1-0.9C46.9,41.1,41,34.4,33.4,39"/>
		</g>
	</g>
	<g>
		<g>
			<defs>
				<rect id="SVGID_13_" x="11.8" width="76.4" height="99.5"/>
			</defs>
			<clipPath id="SVGID_14_">
				<use xlink:href="#SVGID_13_"  style="overflow:visible;"/>
			</clipPath>
			<path class="st6" d="M71.9,45.8c0.5,0,0.9-0.4,0.9-0.9S72.4,44,71.9,44S71,44.4,71,44.9S71.4,45.8,71.9,45.8"/>
		</g>
	</g>
	<g>
		<g>
			<defs>
				<rect id="SVGID_15_" x="11.8" width="76.4" height="99.5"/>
			</defs>
			<clipPath id="SVGID_16_">
				<use xlink:href="#SVGID_15_"  style="overflow:visible;"/>
			</clipPath>
			<path class="st7" d="M75.7,47.7c0.5,0,0.9-0.4,0.9-0.9s-0.4-0.9-0.9-0.9s-0.9,0.4-0.9,0.9C74.7,47.3,75.1,47.7,75.7,47.7"/>
		</g>
	</g>
	<g>
		<g>
			<defs>
				<rect id="SVGID_17_" x="11.8" width="76.4" height="99.5"/>
			</defs>
			<clipPath id="SVGID_18_">
				<use xlink:href="#SVGID_17_"  style="overflow:visible;"/>
			</clipPath>
			<path class="st8" d="M71.9,50.5c0.5,0,0.9-0.4,0.9-0.9s-0.4-0.9-0.9-0.9S71,49.1,71,49.6S71.4,50.5,71.9,50.5"/>
		</g>
	</g>
	<g>
		<g>
			<defs>
				<rect id="SVGID_19_" x="11.8" width="76.4" height="99.5"/>
			</defs>
			<clipPath id="SVGID_20_">
				<use xlink:href="#SVGID_19_"  style="overflow:visible;"/>
			</clipPath>
			<path class="st9" d="M39.6,59.8c-0.4,0.2-1,0-1.2-0.4s0-1,0.4-1.2s1,0,1.2,0.4S40,59.6,39.6,59.8"/>
		</g>
	</g>
	<g>
		<g>
			<defs>
				<rect id="SVGID_21_" x="11.8" width="76.4" height="99.5"/>
			</defs>
			<clipPath id="SVGID_22_">
				<use xlink:href="#SVGID_21_"  style="overflow:visible;"/>
			</clipPath>
			<path class="st10" d="M37.1,63.1c-0.4,0.2-1,0-1.2-0.4s0-1,0.4-1.2s1,0,1.2,0.4S37.5,62.9,37.1,63.1"/>
		</g>
	</g>
	<g>
		<g>
			<defs>
				<rect id="SVGID_23_" x="11.8" width="76.4" height="99.5"/>
			</defs>
			<clipPath id="SVGID_24_">
				<use xlink:href="#SVGID_23_"  style="overflow:visible;"/>
			</clipPath>
			<path class="st11" d="M41.7,64c-0.4,0.2-1,0-1.2-0.4s0-1,0.4-1.2s1,0,1.2,0.4C42.3,63.1,42.1,63.6,41.7,64"/>
		</g>
	</g>
</g>
</svg>
