<?xml version="1.0" encoding="utf-8"?>
<!-- Generator: Adobe Illustrator 24.2.0, SVG Export Plug-In . SVG Version: 6.00 Build 0)  -->
<svg version="1.1" id="Layer_1" xmlns="http://www.w3.org/2000/svg" xmlns:xlink="http://www.w3.org/1999/xlink" x="0px" y="0px"
	 viewBox="0 0 100 100" style="enable-background:new 0 0 100 100;" xml:space="preserve">
<style type="text/css">
	.st0{clip-path:url(#SVGID_2_);fill:#EE984B;}
	.st1{clip-path:url(#SVGID_4_);fill:#EE984B;}
	.st2{clip-path:url(#SVGID_6_);fill:#EE984B;}
	.st3{clip-path:url(#SVGID_8_);fill:#EE984B;}
	.st4{clip-path:url(#SVGID_10_);fill:#EE984B;}
	.st5{clip-path:url(#SVGID_12_);fill:#EE984B;}
	.st6{clip-path:url(#SVGID_14_);fill:#EE984B;}
	.st7{clip-path:url(#SVGID_16_);fill:#EE984B;}
	.st8{clip-path:url(#SVGID_18_);fill:#EE984B;}
	.st9{clip-path:url(#SVGID_20_);fill:#EE984B;}
	.st10{clip-path:url(#SVGID_22_);fill:#EE984B;}
	.st11{clip-path:url(#SVGID_24_);fill:#EE984B;}
	.st12{clip-path:url(#SVGID_26_);fill:#EE984B;}
</style>
<g>
	<g>
		<defs>
			<rect id="SVGID_1_" x="-110.2" width="76.4" height="99.5"/>
		</defs>
		<clipPath id="SVGID_2_">
			<use xlink:href="#SVGID_1_"  style="overflow:visible;"/>
		</clipPath>
		<path class="st0" d="M-43.4,56.7c-2,3.1-2.6,6.8-1.8,10.4l-26,10.5c-1.9-3.1-4.9-5.3-8.4-6.1c-10.8-2.5-19.8-10.1-24-20.4
			c-3.4-8.4-3.3-17.7,0.3-26.2c3.6-8.4,10.3-15,18.7-18.3c17.5-6.9,37.3,1.7,44.3,19.3C-36.2,35.9-37.4,47.5-43.4,56.7L-43.4,56.7z
			 M-40.2,79.8c0.6,1.6-0.1,3.2-1.7,3.9l-20.2,8.2c-1.6,0.6-3.2-0.1-3.9-1.7l-3.6-9l25.8-10.4L-40.2,79.8z M-49.2,94.8
			c-2.6,1-5.5,0.8-7.9-0.6l13.1-5.3C-44.7,91.6-46.6,93.7-49.2,94.8 M-57,3.1C-66.2-0.8-76.7-1-86,2.7l-0.3,0.1
			c-9.4,3.7-16.7,10.9-20.7,20.3c-4.1,9.5-4.2,19.9-0.4,29.3c4.8,11.7,14.8,20.2,26.9,23c2.9,0.7,5.3,2.7,6.5,5.5l4.4,10.8
			c1.4,3.3,5,5.1,8.4,4.2c5.1,4.9,13.1,4.8,18.1-0.2c2.2-2.3,3.5-5.3,3.6-8.5c3.1-1.7,4.5-5.5,3.1-8.9l-4.4-10.8
			c-1.1-2.8-0.8-6,0.8-8.5c11.5-17.7,6.4-41.4-11.4-52.8C-53.1,5-55,4-57,3.1L-57,3.1z"/>
	</g>
	<g>
		<defs>
			<rect id="SVGID_3_" x="-110.2" width="76.4" height="99.5"/>
		</defs>
		<clipPath id="SVGID_4_">
			<use xlink:href="#SVGID_3_"  style="overflow:visible;"/>
		</clipPath>
		<path class="st1" d="M-60,43.7l-16.9,6.8c-1,0.4-1.6,1.6-1.1,2.6c2.3,5.7,8.7,8.4,14.5,6.1s8.4-8.7,6.1-14.5
			C-57.8,43.7-58.9,43.3-60,43.7"/>
	</g>
	<g>
		<defs>
			<rect id="SVGID_5_" x="-110.2" width="76.4" height="99.5"/>
		</defs>
		<clipPath id="SVGID_6_">
			<use xlink:href="#SVGID_5_"  style="overflow:visible;"/>
		</clipPath>
		<path class="st2" d="M-59.3,32.8c-2.8,1.1-4.3,4.4-3.1,7.3c0.4,1,1.6,1.6,2.6,1.1c1-0.4,1.6-1.6,1.1-2.6c-0.3-0.7,0-1.7,0.7-2
			c0.7-0.3,1.7,0,2,0.7v0.1c0.4,1,1.6,1.6,2.6,1.1c1-0.4,1.6-1.6,1.1-2.6C-53.1,33-56.4,31.7-59.3,32.8"/>
	</g>
	<g>
		<defs>
			<rect id="SVGID_7_" x="-110.2" width="76.4" height="99.5"/>
		</defs>
		<clipPath id="SVGID_8_">
			<use xlink:href="#SVGID_7_"  style="overflow:visible;"/>
		</clipPath>
		<path class="st3" d="M-77.7,46.2c-1.1-2.9-4.4-4.3-7.2-3.2c-2.9,1.1-4.3,4.4-3.2,7.3c0,0.1,0.1,0.1,0.1,0.2c0.4,1,1.6,1.6,2.6,1.1
			c1-0.4,1.6-1.6,1.1-2.6c-0.3-0.7,0-1.7,0.7-2c0.7-0.3,1.7,0,2,0.7v0.1c0.4,1,1.6,1.6,2.6,1.1C-77.8,48.5-77.3,47.3-77.7,46.2"/>
	</g>
	<g>
		<defs>
			<rect id="SVGID_9_" x="-110.2" width="76.4" height="99.5"/>
		</defs>
		<clipPath id="SVGID_10_">
			<use xlink:href="#SVGID_9_"  style="overflow:visible;"/>
		</clipPath>
		<path class="st4" d="M-41.6,32.6c-0.2-0.3-0.6-0.4-0.9-0.2c0,0-0.1,0-0.1,0.1c-1.1,0.7-2.7,0.5-3.3,0.4c-0.2-0.6-0.5-1.2-0.8-1.9
			c0.4-0.1,1-0.4,1.6-0.7c0.6-0.4,1.1-0.9,1.6-1.7c0.2-0.3,0-0.7-0.3-0.9c-0.3-0.2-0.7,0-0.9,0.3c-0.5,1-2,1.6-2.6,1.8
			c-0.3-0.4-0.7-0.8-1.1-1.2c0.6-0.7,1.5-2.3,1.2-4.1c0-0.4-0.4-0.6-0.7-0.5c-0.3,0-0.6,0.4-0.5,0.7c0.2,1.2-0.5,2.4-0.9,2.9
			c-2.7-2.1-6-2.7-9.5-1.7c-8.5,2.5-7.6,11.5-7.6,11.6c0,0.4,0.4,0.6,0.7,0.6c0.3,0,0.6-0.4,0.6-0.7c0-0.3-0.8-7.9,6.7-10.1
			c4.3-1.2,7.2,0.5,8.7,1.8l0,0l0,0c0.1,0,0.1,0.1,0.2,0.1c2.3,2.1,3.5,5.2,3.1,7.8c-0.1,0.3,0.2,0.7,0.5,0.7c0.2,0,0.3,0,0.5-0.1
			c0.1-0.1,0.2-0.2,0.3-0.4c0.2-0.9,0.1-2-0.1-2.9c0.9,0.1,2.4,0.1,3.6-0.7c0,0,0.1,0,0.1-0.1C-41.4,33.3-41.3,32.9-41.6,32.6"/>
	</g>
	<g>
		<defs>
			<rect id="SVGID_11_" x="-110.2" width="76.4" height="99.5"/>
		</defs>
		<clipPath id="SVGID_12_">
			<use xlink:href="#SVGID_11_"  style="overflow:visible;"/>
		</clipPath>
		<path class="st5" d="M-88.6,39c-3,1.9-4.9,4.8-5.2,8.1c-0.7-0.1-2.1-0.3-2.8-1.2c-0.2-0.3-0.6-0.3-0.9-0.1
			c-0.3,0.2-0.3,0.6-0.1,0.9c1.1,1.4,2.8,1.7,3.9,1.8c0,0.6,0.1,1.1,0.2,1.7c-0.6,0.3-2,1-3.2,0.7c-0.3-0.1-0.7,0.1-0.8,0.5
			c-0.1,0.3,0.1,0.7,0.5,0.8c0.8,0.2,1.6,0.2,2.3,0c0.6-0.1,1.1-0.4,1.6-0.6c0.2,0.7,0.5,1.4,0.8,2c-0.3,0.5-1.1,1.9-2.5,2.2h-0.1
			c-0.3,0.1-0.5,0.4-0.5,0.8c0.1,0.3,0.4,0.6,0.8,0.5h0.1c1.5-0.3,2.4-1.5,3-2.2c0.6,0.8,1.4,1.6,2.1,2.1c0.2,0.1,0.3,0.1,0.5,0.1
			s0.3-0.1,0.4-0.3c0.2-0.3,0.1-0.7-0.2-0.9c-2.2-1.5-3.6-4.5-3.6-7.6c0-0.1,0-0.1,0-0.2l0,0l0,0c0.1-2,0.8-5.3,4.6-7.6
			c6.7-4.1,11.8,1.7,12,2c0.2,0.3,0.6,0.3,0.9,0.1c0.3-0.2,0.3-0.6,0.1-0.9C-75.1,41.1-81,34.4-88.6,39"/>
	</g>
	<g>
		<defs>
			<rect id="SVGID_13_" x="-110.2" width="76.4" height="99.5"/>
		</defs>
		<clipPath id="SVGID_14_">
			<use xlink:href="#SVGID_13_"  style="overflow:visible;"/>
		</clipPath>
		<path class="st6" d="M-50.1,45.8c0.5,0,0.9-0.4,0.9-0.9s-0.4-0.9-0.9-0.9c-0.5,0-0.9,0.4-0.9,0.9S-50.6,45.8-50.1,45.8"/>
	</g>
	<g>
		<defs>
			<rect id="SVGID_15_" x="-110.2" width="76.4" height="99.5"/>
		</defs>
		<clipPath id="SVGID_16_">
			<use xlink:href="#SVGID_15_"  style="overflow:visible;"/>
		</clipPath>
		<path class="st7" d="M-46.3,47.7c0.5,0,0.9-0.4,0.9-0.9c0-0.5-0.4-0.9-0.9-0.9c-0.5,0-0.9,0.4-0.9,0.9
			C-47.3,47.3-46.9,47.7-46.3,47.7"/>
	</g>
	<g>
		<defs>
			<rect id="SVGID_17_" x="-110.2" width="76.4" height="99.5"/>
		</defs>
		<clipPath id="SVGID_18_">
			<use xlink:href="#SVGID_17_"  style="overflow:visible;"/>
		</clipPath>
		<path class="st8" d="M-50.1,50.5c0.5,0,0.9-0.4,0.9-0.9c0-0.5-0.4-0.9-0.9-0.9c-0.5,0-0.9,0.4-0.9,0.9
			C-51,50.1-50.6,50.5-50.1,50.5"/>
	</g>
	<g>
		<defs>
			<rect id="SVGID_19_" x="-110.2" width="76.4" height="99.5"/>
		</defs>
		<clipPath id="SVGID_20_">
			<use xlink:href="#SVGID_19_"  style="overflow:visible;"/>
		</clipPath>
		<path class="st9" d="M-82.4,59.8c-0.4,0.2-1,0-1.2-0.4c-0.2-0.4,0-1,0.4-1.2c0.4-0.2,1,0,1.2,0.4C-81.8,59-82,59.6-82.4,59.8"/>
	</g>
	<g>
		<defs>
			<rect id="SVGID_21_" x="-110.2" width="76.4" height="99.5"/>
		</defs>
		<clipPath id="SVGID_22_">
			<use xlink:href="#SVGID_21_"  style="overflow:visible;"/>
		</clipPath>
		<path class="st10" d="M-84.9,63.1c-0.4,0.2-1,0-1.2-0.4c-0.2-0.4,0-1,0.4-1.2c0.4-0.2,1,0,1.2,0.4C-84.3,62.3-84.5,62.9-84.9,63.1
			"/>
	</g>
	<g>
		<defs>
			<rect id="SVGID_23_" x="-110.2" width="76.4" height="99.5"/>
		</defs>
		<clipPath id="SVGID_24_">
			<use xlink:href="#SVGID_23_"  style="overflow:visible;"/>
		</clipPath>
		<path class="st11" d="M-80.3,64c-0.4,0.2-1,0-1.2-0.4c-0.2-0.4,0-1,0.4-1.2c0.4-0.2,1,0,1.2,0.4C-79.7,63.1-79.9,63.6-80.3,64"/>
	</g>
</g>
<g>
	<defs>
		<rect id="SVGID_25_" x="13.1" width="75.9" height="98.9"/>
	</defs>
	<clipPath id="SVGID_26_">
		<use xlink:href="#SVGID_25_"  style="overflow:visible;"/>
	</clipPath>
	<path class="st12" d="M22.6,56.4c2,3,2.6,6.7,1.8,10.3l25.9,10.5c1.8-3.1,4.9-5.3,8.4-6.1c10.8-2.5,19.7-10.1,23.8-20.3
		c3.4-8.4,3.3-17.6-0.3-26.1C78.5,16.2,71.9,9.7,63.5,6.4c-17.4-6.9-37.1,1.7-44,19.1C15.5,35.7,16.6,47.2,22.6,56.4L22.6,56.4z
		 M19.4,79.3c-0.6,1.5,0.1,3.2,1.6,3.9l20.1,8.1c1.5,0.6,3.2-0.1,3.9-1.6l3.6-8.9L23,70.4L19.4,79.3z M28.3,94.3
		c2.6,1,5.5,0.8,7.8-0.6l-13-5.3C23.8,91,25.7,93.2,28.3,94.3 M36.1,3.1C45.3-0.9,55.7-1,65,2.7l0.3,0.1C74.5,6.5,81.8,13.7,85.8,23
		c4,9.4,4.2,19.8,0.4,29.1c-4.6,11.5-14.6,20-26.7,22.8c-2.9,0.7-5.3,2.7-6.4,5.5l-4.3,10.8c-1.3,3.3-4.9,5.1-8.3,4.1
		c-5,4.9-13.1,4.8-18-0.2c-2.2-2.3-3.5-5.3-3.6-8.5c-3.1-1.7-4.5-5.5-3.1-8.8L20,67c1.1-2.8,0.8-6-0.9-8.5
		C7.8,41,12.9,17.5,30.5,6.1C32.3,4.9,34.1,3.9,36.1,3.1L36.1,3.1z"/>
	<path class="st12" d="M27.2,31.9c-0.5,0-0.9-0.4-0.9-0.9c0-0.5,0.4-0.9,0.9-0.9s0.9,0.4,0.9,0.9C28.1,31.4,27.7,31.9,27.2,31.9"/>
	<path class="st12" d="M23.5,33.7c-0.5,0-0.9-0.4-0.9-0.9s0.4-0.9,0.9-0.9s0.9,0.4,0.9,0.9S24,33.7,23.5,33.7"/>
	<path class="st12" d="M27.2,36.5c-0.5,0-0.9-0.4-0.9-0.9c0-0.5,0.4-0.9,0.9-0.9s0.9,0.4,0.9,0.9C28.1,36.1,27.7,36.5,27.2,36.5"/>
	<path class="st12" d="M71.2,51.3c0.5,0.2,1,0.1,1.2-0.4c0.2-0.5,0.1-1-0.4-1.2c-0.5-0.2-1-0.1-1.2,0.4C70.6,50.5,70.8,51,71.2,51.3
		"/>
	<path class="st12" d="M73.7,54.6c0.5,0.2,1,0.1,1.2-0.4c0.2-0.5,0.1-1-0.4-1.2c-0.5-0.2-1-0.1-1.2,0.4
		C73.1,53.8,73.2,54.4,73.7,54.6"/>
	<path class="st12" d="M69.1,55.4c0.5,0.2,1,0.1,1.2-0.4c0.2-0.5,0.1-1-0.4-1.2c-0.5-0.2-1-0.1-1.2,0.4
		C68.5,54.6,68.7,55.1,69.1,55.4"/>
	<path class="st12" d="M38.2,25.7c1.7,0.7,2.1,3.4,1,5.9c-1.1,2.5-3.4,3.9-5.1,3.2c-1.7-0.7-2.1-3.4-1-5.9
		C34.3,26.4,36.6,25,38.2,25.7"/>
	<path class="st12" d="M68.6,39.2c1.7,0.7,2.1,3.4,1,5.9c-1.1,2.5-3.4,3.9-5.1,3.2c-1.7-0.7-2.1-3.4-1-5.9
		C64.6,39.9,66.9,38.5,68.6,39.2"/>
	<path class="st12" d="M42.1,57.6c6.6,3,14.5,0,17.4-6.7c0.4-1,0-2.1-1-2.5c-1-0.4-2.1,0-2.5,1c-2.1,4.8-7.7,6.9-12.4,4.8
		c-4.7-2.1-6.9-7.7-4.8-12.5c0.4-1,0-2.1-1-2.5c-1-0.4-2.1,0-2.5,1C32.4,46.8,35.4,54.6,42.1,57.6"/>
</g>
</svg>
