<?xml version="1.0" encoding="utf-8"?>
<!-- Generator: Adobe Illustrator 24.2.0, SVG Export Plug-In . SVG Version: 6.00 Build 0)  -->
<svg version="1.1" id="Bulbs" xmlns="http://www.w3.org/2000/svg" xmlns:xlink="http://www.w3.org/1999/xlink" x="0px" y="0px"
	 viewBox="0 0 100 100" style="enable-background:new 0 0 100 100;" xml:space="preserve">
<style type="text/css">
	.st0{clip-path:url(#SVGID_2_);fill:#EE984B;}
	.st1{clip-path:url(#SVGID_4_);fill:#EE984B;}
	.st2{clip-path:url(#SVGID_6_);fill:#EE984B;}
	.st3{clip-path:url(#SVGID_8_);fill:#EE984B;}
	.st4{clip-path:url(#SVGID_10_);fill:#EE984B;}
	.st5{clip-path:url(#SVGID_12_);fill:#EE984B;}
	.st6{clip-path:url(#SVGID_14_);fill:#EE984B;}
	.st7{clip-path:url(#SVGID_16_);fill:#EE984B;}
	.st8{clip-path:url(#SVGID_18_);fill:#EE984B;}
	.st9{clip-path:url(#SVGID_20_);fill:#EE984B;}
	.st10{clip-path:url(#SVGID_22_);fill:#EE984B;}
	.st11{clip-path:url(#SVGID_24_);fill:#EE984B;}
	.st12{clip-path:url(#SVGID_26_);fill:#EE984B;}
	.st13{clip-path:url(#SVGID_28_);fill:#EE984B;}
	.st14{clip-path:url(#SVGID_30_);fill:#EE984B;}
	.st15{clip-path:url(#SVGID_32_);fill:#EE984B;}
	.st16{clip-path:url(#SVGID_34_);fill:#EE984B;}
</style>
<g>
	<g>
		<defs>
			<rect id="SVGID_1_" x="-588.2" width="76.8" height="100"/>
		</defs>
		<clipPath id="SVGID_2_">
			<use xlink:href="#SVGID_1_"  style="overflow:visible;"/>
		</clipPath>
		<path class="st0" d="M-521.1,57c-2,3.1-2.6,6.8-1.8,10.5L-549,78c-1.9-3.1-4.9-5.3-8.5-6.2c-10.9-2.5-19.9-10.2-24.1-20.5
			c-3.5-8.5-3.4-17.8,0.3-26.4c3.7-8.5,10.4-15.1,18.8-18.4c17.6-6.9,37.5,1.7,44.5,19.4C-513.9,36.1-515,47.7-521.1,57L-521.1,57z
			 M-517.8,80.2c0.6,1.6-0.1,3.2-1.7,3.9l-20.3,8.3c-1.6,0.6-3.2-0.1-3.9-1.7l-3.7-9l26-10.5L-517.8,80.2z M-526.8,95.3
			c-2.6,1-5.5,0.8-8-0.6l13.2-5.3C-522.3,92-524.2,94.2-526.8,95.3 M-534.7,3.1c-9.3-4-19.8-4.2-29.2-0.4l-0.3,0.1
			c-9.4,3.8-16.8,11-20.8,20.4c-4.1,9.5-4.2,20-0.4,29.4c4.8,11.7,14.9,20.3,27,23.1c2.9,0.7,5.3,2.7,6.5,5.5l4.4,10.9
			c1.4,3.4,5,5.1,8.5,4.2c5.1,4.9,13.2,4.8,18.2-0.2c2.2-2.3,3.6-5.3,3.7-8.6c3.1-1.7,4.5-5.5,3.1-8.9l-4.4-10.9
			c-1.2-2.8-0.8-6.1,0.8-8.6c11.5-17.8,6.4-41.6-11.4-53.1C-530.8,5-532.7,4-534.7,3.1L-534.7,3.1z"/>
	</g>
	<g>
		<defs>
			<rect id="SVGID_3_" x="-588.2" width="76.8" height="100"/>
		</defs>
		<clipPath id="SVGID_4_">
			<use xlink:href="#SVGID_3_"  style="overflow:visible;"/>
		</clipPath>
		<path class="st1" d="M-537.7,44l-17,6.8c-1,0.4-1.6,1.6-1.2,2.6c2.3,5.8,8.8,8.5,14.6,6.2s8.5-8.8,6.2-14.6
			C-535.5,44-536.7,43.6-537.7,44"/>
	</g>
	<g>
		<defs>
			<rect id="SVGID_5_" x="-588.2" width="76.8" height="100"/>
		</defs>
		<clipPath id="SVGID_6_">
			<use xlink:href="#SVGID_5_"  style="overflow:visible;"/>
		</clipPath>
		<path class="st2" d="M-537,33c-2.8,1.2-4.3,4.4-3.1,7.3c0.4,1,1.6,1.6,2.6,1.2s1.6-1.6,1.2-2.6c-0.3-0.7,0-1.7,0.7-2
			c0.7-0.3,1.7,0,2,0.7v0.1c0.4,1,1.6,1.6,2.6,1.2s1.6-1.6,1.2-2.6C-530.8,33.2-534.2,31.8-537,33"/>
	</g>
	<g>
		<defs>
			<rect id="SVGID_7_" x="-588.2" width="76.8" height="100"/>
		</defs>
		<clipPath id="SVGID_8_">
			<use xlink:href="#SVGID_7_"  style="overflow:visible;"/>
		</clipPath>
		<path class="st3" d="M-555.5,46.5c-1.2-2.9-4.4-4.3-7.2-3.2c-2.9,1.2-4.3,4.4-3.2,7.3c0,0.1,0.1,0.1,0.1,0.2
			c0.4,1,1.6,1.6,2.6,1.2s1.6-1.6,1.2-2.6c-0.3-0.7,0-1.7,0.7-2c0.7-0.3,1.7,0,2,0.7v0.1c0.4,1,1.6,1.6,2.6,1.2
			C-555.6,48.8-555.1,47.5-555.5,46.5"/>
	</g>
	<g>
		<defs>
			<rect id="SVGID_9_" x="-588.2" width="76.8" height="100"/>
		</defs>
		<clipPath id="SVGID_10_">
			<use xlink:href="#SVGID_9_"  style="overflow:visible;"/>
		</clipPath>
		<path class="st4" d="M-519.2,32.8c-0.2-0.3-0.6-0.4-0.9-0.2c0,0-0.1,0-0.1,0.1c-1.2,0.7-2.7,0.5-3.4,0.4c-0.2-0.6-0.5-1.3-0.8-1.9
			c0.4-0.1,1-0.4,1.6-0.7c0.6-0.4,1.2-0.9,1.6-1.7c0.2-0.3,0-0.7-0.3-0.9c-0.3-0.2-0.7,0-0.9,0.3c-0.5,1-2,1.6-2.6,1.8
			c-0.3-0.4-0.7-0.8-1.2-1.3c0.6-0.7,1.5-2.3,1.3-4.1c0-0.4-0.4-0.6-0.7-0.5c-0.3,0-0.6,0.4-0.5,0.7c0.2,1.3-0.5,2.4-0.9,2.9
			c-2.7-2.1-6.1-2.7-9.5-1.7c-8.6,2.5-7.6,11.5-7.6,11.6c0,0.4,0.4,0.6,0.7,0.6s0.6-0.4,0.6-0.7c0-0.3-0.8-8,6.7-10.2
			c4.3-1.3,7.2,0.5,8.8,1.8l0,0l0,0c0.1,0,0.1,0.1,0.2,0.1c2.3,2.1,3.6,5.2,3.1,7.9c-0.1,0.3,0.2,0.7,0.5,0.7c0.2,0,0.3,0,0.5-0.1
			c0.1-0.1,0.2-0.2,0.3-0.4c0.2-0.9,0.1-2-0.1-2.9c0.9,0.1,2.4,0.1,3.7-0.7c0,0,0.1,0,0.1-0.1C-519.1,33.5-519,33.1-519.2,32.8"/>
	</g>
	<g>
		<defs>
			<rect id="SVGID_11_" x="-588.2" width="76.8" height="100"/>
		</defs>
		<clipPath id="SVGID_12_">
			<use xlink:href="#SVGID_11_"  style="overflow:visible;"/>
		</clipPath>
		<path class="st5" d="M-566.5,39.2c-3,1.9-4.9,4.8-5.2,8.2c-0.7-0.1-2.1-0.3-2.8-1.3c-0.2-0.3-0.6-0.3-0.9-0.1
			c-0.3,0.2-0.3,0.6-0.1,0.9c1.2,1.4,2.8,1.7,3.9,1.8c0,0.6,0.1,1.2,0.2,1.7c-0.6,0.3-2,1-3.2,0.7c-0.3-0.1-0.7,0.1-0.8,0.5
			c-0.1,0.3,0.1,0.7,0.5,0.8c0.8,0.2,1.6,0.2,2.3,0c0.6-0.1,1.2-0.4,1.6-0.6c0.2,0.7,0.5,1.4,0.8,2c-0.3,0.5-1.2,1.9-2.5,2.2h-0.1
			c-0.3,0.1-0.5,0.4-0.5,0.8c0.1,0.3,0.4,0.6,0.8,0.5h0.1c1.5-0.3,2.4-1.5,3-2.2c0.6,0.8,1.4,1.6,2.1,2.1c0.2,0.1,0.3,0.1,0.5,0.1
			c0.2,0,0.3-0.1,0.4-0.3c0.2-0.3,0.1-0.7-0.2-0.9c-2.2-1.5-3.7-4.5-3.7-7.6c0-0.1,0-0.1,0-0.2l0,0l0,0c0.1-2,0.8-5.3,4.6-7.6
			c6.7-4.1,11.8,1.7,12,2c0.2,0.3,0.6,0.3,0.9,0.1c0.3-0.2,0.3-0.6,0.1-0.9C-552.9,41.4-558.9,34.6-566.5,39.2"/>
	</g>
	<g>
		<defs>
			<rect id="SVGID_13_" x="-588.2" width="76.8" height="100"/>
		</defs>
		<clipPath id="SVGID_14_">
			<use xlink:href="#SVGID_13_"  style="overflow:visible;"/>
		</clipPath>
		<path class="st6" d="M-527.8,46.1c0.5,0,0.9-0.4,0.9-0.9c0-0.5-0.4-0.9-0.9-0.9s-0.9,0.4-0.9,0.9
			C-528.7,45.7-528.3,46.1-527.8,46.1"/>
	</g>
	<g>
		<defs>
			<rect id="SVGID_15_" x="-588.2" width="76.8" height="100"/>
		</defs>
		<clipPath id="SVGID_16_">
			<use xlink:href="#SVGID_15_"  style="overflow:visible;"/>
		</clipPath>
		<path class="st7" d="M-524,48c0.5,0,0.9-0.4,0.9-0.9c0-0.5-0.4-0.9-0.9-0.9s-0.9,0.4-0.9,0.9C-525,47.5-524.5,48-524,48"/>
	</g>
	<g>
		<defs>
			<rect id="SVGID_17_" x="-588.2" width="76.8" height="100"/>
		</defs>
		<clipPath id="SVGID_18_">
			<use xlink:href="#SVGID_17_"  style="overflow:visible;"/>
		</clipPath>
		<path class="st8" d="M-527.8,50.8c0.5,0,0.9-0.4,0.9-0.9s-0.4-0.9-0.9-0.9s-0.9,0.4-0.9,0.9S-528.3,50.8-527.8,50.8"/>
	</g>
	<g>
		<defs>
			<rect id="SVGID_19_" x="-588.2" width="76.8" height="100"/>
		</defs>
		<clipPath id="SVGID_20_">
			<use xlink:href="#SVGID_19_"  style="overflow:visible;"/>
		</clipPath>
		<path class="st9" d="M-560.2,60.1c-0.4,0.2-1,0-1.3-0.4s0-1,0.4-1.3c0.4-0.2,1,0,1.3,0.4C-559.6,59.3-559.8,59.9-560.2,60.1"/>
	</g>
	<g>
		<defs>
			<rect id="SVGID_21_" x="-588.2" width="76.8" height="100"/>
		</defs>
		<clipPath id="SVGID_22_">
			<use xlink:href="#SVGID_21_"  style="overflow:visible;"/>
		</clipPath>
		<path class="st10" d="M-562.8,63.5c-0.4,0.2-1,0-1.3-0.4s0-1,0.4-1.3c0.4-0.2,1,0,1.3,0.4S-562.3,63.2-562.8,63.5"/>
	</g>
	<g>
		<defs>
			<rect id="SVGID_23_" x="-588.2" width="76.8" height="100"/>
		</defs>
		<clipPath id="SVGID_24_">
			<use xlink:href="#SVGID_23_"  style="overflow:visible;"/>
		</clipPath>
		<path class="st11" d="M-558.1,64.3c-0.4,0.2-1,0-1.3-0.4c-0.2-0.4,0-1,0.4-1.3c0.4-0.2,1,0,1.3,0.4
			C-557.5,63.5-557.7,64-558.1,64.3"/>
	</g>
</g>
<g>
	<defs>
		<rect id="SVGID_25_" x="-468.3" width="76.7" height="100"/>
	</defs>
	<clipPath id="SVGID_26_">
		<use xlink:href="#SVGID_25_"  style="overflow:visible;"/>
	</clipPath>
	<path class="st12" d="M-458.8,57c2,3.1,2.6,6.8,1.8,10.4l26.2,10.6c1.9-3.1,4.9-5.3,8.4-6.2c10.9-2.5,19.9-10.2,24.1-20.6
		c3.4-8.5,3.3-17.8-0.4-26.3c-3.7-8.5-10.3-15-18.9-18.4c-17.6-6.9-37.5,1.7-44.5,19.3C-465.9,36.1-464.8,47.7-458.8,57L-458.8,57z
		 M-462,80.2c-0.6,1.5,0.1,3.3,1.7,3.9l20.4,8.2c1.5,0.6,3.3-0.1,3.9-1.7l3.6-9l-25.9-10.5L-462,80.2z M-453,95.3
		c2.6,1.1,5.5,0.8,7.9-0.7l-13.1-5.3C-457.5,92-455.6,94.2-453,95.3 M-445.1,3.1c9.3-4,19.8-4.2,29.2-0.4l0.3,0.1
		c9.4,3.8,16.8,11,20.8,20.5c4.1,9.5,4.2,20,0.4,29.5c-4.7,11.6-14.8,20.2-26.9,23c-2.9,0.7-5.4,2.8-6.5,5.6l-4.4,10.9
		c-1.4,3.3-5,5.1-8.4,4.2c-5.1,5-13.2,4.9-18.2-0.2c-2.2-2.3-3.6-5.4-3.6-8.6c-3.2-1.7-4.5-5.5-3.2-8.9l4.4-10.9
		c1.1-2.8,0.8-6-0.9-8.6c-11.5-17.8-6.4-41.5,11.4-53C-449,5-447.1,4-445.1,3.1L-445.1,3.1z"/>
	<path class="st12" d="M-454.1,32.2c-0.5,0-0.9-0.4-0.9-0.9c0-0.5,0.4-0.9,0.9-0.9c0.5,0,0.9,0.4,0.9,0.9
		C-453.2,31.8-453.6,32.2-454.1,32.2"/>
	<path class="st12" d="M-457.8,34.1c-0.5,0-0.9-0.4-0.9-0.9c0-0.5,0.4-0.9,0.9-0.9c0.5,0,0.9,0.4,0.9,0.9
		C-456.9,33.7-457.3,34.1-457.8,34.1"/>
	<path class="st12" d="M-454.1,36.9c-0.5,0-0.9-0.4-0.9-0.9s0.4-0.9,0.9-0.9c0.5,0,0.9,0.4,0.9,0.9S-453.6,36.9-454.1,36.9"/>
	<path class="st12" d="M-409.6,51.8c0.5,0.2,1,0.1,1.3-0.4c0.2-0.5,0.1-1-0.4-1.3c-0.5-0.2-1-0.1-1.3,0.4
		C-410.2,51-410,51.6-409.6,51.8"/>
	<path class="st12" d="M-407.1,55.2c0.5,0.2,1,0.1,1.3-0.4c0.2-0.5,0.1-1-0.4-1.3c-0.5-0.2-1-0.1-1.3,0.4S-407.6,54.9-407.1,55.2"/>
	<path class="st12" d="M-411.7,56c0.5,0.2,1,0.1,1.3-0.4c0.2-0.5,0.1-1-0.4-1.3c-0.5-0.2-1-0.1-1.3,0.4
		C-412.3,55.2-412.2,55.7-411.7,56"/>
	<path class="st12" d="M-442.9,26c1.7,0.8,2.1,3.4,1,6c-1.1,2.5-3.4,4-5.1,3.2c-1.7-0.8-2.1-3.4-1-6
		C-446.9,26.7-444.6,25.2-442.9,26"/>
	<path class="st12" d="M-412.3,39.6c1.7,0.8,2.1,3.4,1,6c-1.1,2.5-3.4,4-5.1,3.2c-1.7-0.8-2.1-3.4-1-6
		C-416.3,40.3-414,38.9-412.3,39.6"/>
	<path class="st12" d="M-439.9,60.4c14.9,6.6,23-2.9,23.4-3.3c0.7-0.8,0.9-1.9,0.7-2.9c-0.2-1-0.9-1.9-1.9-2.3l-30.7-13.7
		c-1-0.4-2.1-0.4-3,0.1c-0.9,0.5-1.6,1.4-1.7,2.4C-453.2,41.4-454.8,53.8-439.9,60.4"/>
</g>
<g>
	<defs>
		<rect id="SVGID_27_" x="-348.3" width="76.7" height="100"/>
	</defs>
	<clipPath id="SVGID_28_">
		<use xlink:href="#SVGID_27_"  style="overflow:visible;"/>
	</clipPath>
	<path class="st13" d="M-338.8,57c2,3.1,2.6,6.8,1.8,10.4l26.2,10.6c1.9-3.1,4.9-5.3,8.4-6.2c10.9-2.5,19.9-10.2,24.1-20.6
		c3.4-8.5,3.3-17.8-0.4-26.3c-3.7-8.5-10.3-15-18.9-18.4c-17.6-6.9-37.5,1.7-44.5,19.3C-345.9,36.1-344.8,47.7-338.8,57L-338.8,57z
		 M-342,80.2c-0.6,1.5,0.1,3.3,1.7,3.9l20.4,8.2c1.5,0.6,3.3-0.1,3.9-1.7l3.6-9l-25.9-10.5L-342,80.2z M-333,95.3
		c2.6,1.1,5.5,0.8,7.9-0.7l-13.1-5.3C-337.5,92-335.6,94.2-333,95.3 M-325.1,3.1c9.3-4,19.8-4.2,29.2-0.4l0.3,0.1
		c9.4,3.8,16.8,11,20.8,20.5c4.1,9.5,4.2,20,0.4,29.5c-4.7,11.6-14.8,20.2-26.9,23c-2.9,0.7-5.4,2.8-6.5,5.6l-4.4,10.9
		c-1.4,3.3-5,5.1-8.4,4.2c-5.1,5-13.2,4.9-18.2-0.2c-2.2-2.3-3.6-5.4-3.6-8.6c-3.2-1.7-4.5-5.5-3.2-8.9l4.4-10.9
		c1.1-2.8,0.8-6-0.9-8.6c-11.5-17.8-6.4-41.5,11.4-53C-329,5-327.1,4-325.1,3.1L-325.1,3.1z"/>
	<path class="st13" d="M-334.1,32.2c-0.5,0-0.9-0.4-0.9-0.9c0-0.5,0.4-0.9,0.9-0.9c0.5,0,0.9,0.4,0.9,0.9
		C-333.2,31.8-333.6,32.2-334.1,32.2"/>
	<path class="st13" d="M-337.8,34.1c-0.5,0-0.9-0.4-0.9-0.9c0-0.5,0.4-0.9,0.9-0.9s0.9,0.4,0.9,0.9
		C-336.9,33.7-337.3,34.1-337.8,34.1"/>
	<path class="st13" d="M-334.1,36.9c-0.5,0-0.9-0.4-0.9-0.9s0.4-0.9,0.9-0.9c0.5,0,0.9,0.4,0.9,0.9S-333.6,36.9-334.1,36.9"/>
	<path class="st13" d="M-289.6,51.8c0.5,0.2,1,0.1,1.3-0.4c0.2-0.5,0.1-1-0.4-1.3c-0.5-0.2-1-0.1-1.3,0.4
		C-290.2,51-290,51.6-289.6,51.8"/>
	<path class="st13" d="M-287.1,55.2c0.5,0.2,1,0.1,1.3-0.4c0.2-0.5,0.1-1-0.4-1.3c-0.5-0.2-1-0.1-1.3,0.4S-287.6,54.9-287.1,55.2"/>
	<path class="st13" d="M-291.7,56c0.5,0.2,1,0.1,1.3-0.4c0.2-0.5,0.1-1-0.4-1.3c-0.5-0.2-1-0.1-1.3,0.4
		C-292.3,55.2-292.2,55.7-291.7,56"/>
	<path class="st13" d="M-322.9,26c1.7,0.8,2.1,3.4,1,6c-1.1,2.5-3.4,4-5.1,3.2c-1.7-0.8-2.1-3.4-1-6
		C-326.9,26.7-324.6,25.2-322.9,26"/>
	<path class="st13" d="M-292.3,39.6c1.7,0.8,2.1,3.4,1,6c-1.1,2.5-3.4,4-5.1,3.2c-1.7-0.8-2.1-3.4-1-6
		C-296.3,40.3-294,38.9-292.3,39.6"/>
	<path class="st13" d="M-319.1,58.2c6.7,3,14.6-0.1,17.6-6.8c0.4-1,0-2.1-1-2.5c-1-0.4-2.1,0-2.5,1c-2.1,4.8-7.8,7-12.6,4.8
		c-4.8-2.1-7-7.8-4.8-12.6c0.4-1,0-2.1-1-2.5c-1-0.4-2.1,0-2.5,1C-328.8,47.3-325.8,55.2-319.1,58.2"/>
</g>
<g>
	<defs>
		<rect id="SVGID_29_" x="-228.4" width="76.7" height="100"/>
	</defs>
	<clipPath id="SVGID_30_">
		<use xlink:href="#SVGID_29_"  style="overflow:visible;"/>
	</clipPath>
	<path class="st14" d="M-218.8,57c2,3.1,2.6,6.8,1.8,10.4l26.2,10.6c1.9-3.1,4.9-5.3,8.4-6.2c10.9-2.5,19.9-10.2,24.1-20.6
		c3.4-8.5,3.3-17.8-0.4-26.3c-3.7-8.5-10.3-15-18.9-18.4c-17.6-6.9-37.5,1.7-44.5,19.3C-226,36.1-224.8,47.7-218.8,57L-218.8,57z
		 M-222,80.2c-0.6,1.5,0.1,3.3,1.7,3.9l20.4,8.2c1.5,0.6,3.3-0.1,3.9-1.7l3.6-9l-25.9-10.5L-222,80.2z M-213,95.3
		c2.6,1.1,5.5,0.8,7.9-0.7l-13.1-5.3C-217.6,92-215.6,94.2-213,95.3 M-205.2,3.1c9.3-4,19.8-4.2,29.2-0.4l0.3,0.1
		c9.4,3.8,16.8,11,20.8,20.5c4.1,9.5,4.2,20,0.4,29.5c-4.7,11.6-14.8,20.2-26.9,23c-2.9,0.7-5.4,2.8-6.5,5.6l-4.4,10.9
		c-1.4,3.3-5,5.1-8.4,4.2c-5.1,5-13.2,4.9-18.2-0.2c-2.2-2.3-3.6-5.4-3.6-8.6c-3.2-1.7-4.5-5.5-3.2-8.9l4.4-10.9
		c1.1-2.8,0.8-6-0.9-8.6c-11.5-17.8-6.4-41.5,11.4-53C-209,5-207.1,4-205.2,3.1L-205.2,3.1z"/>
	<path class="st14" d="M-214.1,32.2c-0.5,0-0.9-0.4-0.9-0.9c0-0.5,0.4-0.9,0.9-0.9s0.9,0.4,0.9,0.9
		C-213.2,31.8-213.6,32.2-214.1,32.2"/>
	<path class="st14" d="M-217.9,34.1c-0.5,0-0.9-0.4-0.9-0.9c0-0.5,0.4-0.9,0.9-0.9c0.5,0,0.9,0.4,0.9,0.9
		C-216.9,33.7-217.4,34.1-217.9,34.1"/>
	<path class="st14" d="M-214.1,36.9c-0.5,0-0.9-0.4-0.9-0.9s0.4-0.9,0.9-0.9s0.9,0.4,0.9,0.9S-213.6,36.9-214.1,36.9"/>
	<path class="st14" d="M-169.6,51.8c0.5,0.2,1,0.1,1.3-0.4c0.2-0.5,0.1-1-0.4-1.3c-0.5-0.2-1-0.1-1.3,0.4
		C-170.3,51-170.1,51.6-169.6,51.8"/>
	<path class="st14" d="M-167.2,55.2c0.5,0.2,1,0.1,1.3-0.4c0.2-0.5,0.1-1-0.4-1.3c-0.5-0.2-1-0.1-1.3,0.4S-167.6,54.9-167.2,55.2"/>
	<path class="st14" d="M-171.7,56c0.5,0.2,1,0.1,1.3-0.4c0.2-0.5,0.1-1-0.4-1.3c-0.5-0.2-1-0.1-1.3,0.4
		C-172.4,55.2-172.2,55.7-171.7,56"/>
	<path class="st14" d="M-203,26c1.7,0.8,2.1,3.4,1,6c-1.1,2.5-3.4,4-5.1,3.2c-1.7-0.8-2.1-3.4-1-6C-207,26.7-204.7,25.2-203,26"/>
	<path class="st14" d="M-172.3,39.6c1.7,0.8,2.1,3.4,1,6c-1.1,2.5-3.4,4-5.1,3.2c-1.7-0.8-2.1-3.4-1-6
		C-176.3,40.3-174,38.9-172.3,39.6"/>
	<path class="st14" d="M-191.6,41.5c2.9,1.3,4.2,4.6,2.9,7.5c-1.3,2.9-4.6,4.2-7.5,2.9c-2.9-1.3-4.2-4.6-2.9-7.5
		C-197.8,41.5-194.4,40.2-191.6,41.5"/>
</g>
<g>
	<defs>
		<rect id="SVGID_31_" x="-108.4" y="-0.2" width="76.7" height="100"/>
	</defs>
	<clipPath id="SVGID_32_">
		<use xlink:href="#SVGID_31_"  style="overflow:visible;"/>
	</clipPath>
	<path class="st15" d="M-98.8,56.8c2,3.1,2.6,6.8,1.8,10.4l26.2,10.6c1.9-3.1,4.9-5.3,8.4-6.2c10.9-2.5,19.9-10.2,24.1-20.6
		c3.4-8.5,3.3-17.8-0.4-26.3c-3.7-8.5-10.3-15-18.9-18.4C-75-0.6-94.9,8-101.9,25.6C-105.9,35.9-104.8,47.5-98.8,56.8L-98.8,56.8z
		 M-102,80c-0.6,1.5,0.1,3.3,1.7,3.9l20.4,8.2c1.5,0.6,3.3-0.1,3.9-1.7l3.6-9L-98.3,71L-102,80z M-93,95.1c2.6,1.1,5.5,0.8,7.9-0.7
		l-13.1-5.3C-97.5,91.9-95.6,94.1-93,95.1 M-85.1,3c9.3-4,19.8-4.2,29.2-0.4l0.3,0.1c9.4,3.8,16.8,11,20.8,20.5
		c4.1,9.5,4.2,20,0.4,29.5c-4.7,11.6-14.8,20.2-27,23c-2.9,0.7-5.4,2.8-6.5,5.6L-72.3,92c-1.4,3.3-5,5.1-8.4,4.2
		c-5.1,5-13.2,4.9-18.2-0.2c-2.2-2.3-3.6-5.4-3.6-8.6c-3.2-1.7-4.5-5.5-3.2-8.9l4.4-10.9c1.1-2.8,0.8-6-0.9-8.6
		c-11.5-17.8-6.4-41.5,11.4-53C-89,4.8-87.1,3.8-85.1,3L-85.1,3z"/>
	<path class="st15" d="M-94.1,32c-0.5,0-0.9-0.4-0.9-0.9c0-0.5,0.4-0.9,0.9-0.9s0.9,0.4,0.9,0.9C-93.2,31.6-93.6,32-94.1,32"/>
	<path class="st15" d="M-97.8,33.9c-0.5,0-0.9-0.4-0.9-0.9c0-0.5,0.4-0.9,0.9-0.9s0.9,0.4,0.9,0.9C-96.9,33.5-97.3,33.9-97.8,33.9"
		/>
	<path class="st15" d="M-94.1,36.7c-0.5,0-0.9-0.4-0.9-0.9c0-0.5,0.4-0.9,0.9-0.9s0.9,0.4,0.9,0.9C-93.2,36.3-93.6,36.7-94.1,36.7"
		/>
	<path class="st15" d="M-49.6,51.7c0.5,0.2,1,0.1,1.3-0.4c0.2-0.5,0.1-1-0.4-1.3c-0.5-0.2-1-0.1-1.3,0.4
		C-50.2,50.9-50,51.4-49.6,51.7"/>
	<path class="st15" d="M-47.1,55c0.5,0.2,1,0.1,1.3-0.4c0.2-0.5,0.1-1-0.4-1.3c-0.5-0.2-1-0.1-1.3,0.4S-47.6,54.8-47.1,55"/>
	<path class="st15" d="M-51.7,55.8c0.5,0.2,1,0.1,1.3-0.4c0.2-0.5,0.1-1-0.4-1.3c-0.5-0.2-1-0.1-1.3,0.4S-52.2,55.6-51.7,55.8"/>
	<path class="st15" d="M-82.9,25.8c1.7,0.8,2.2,3.4,1,6c-1.1,2.5-3.4,4-5.1,3.2c-1.7-0.8-2.2-3.4-1-6
		C-86.9,26.5-84.6,25.1-82.9,25.8"/>
	<path class="st15" d="M-52.3,39.5c1.7,0.8,2.2,3.4,1,6c-1.1,2.5-3.4,4-5.1,3.2c-1.7-0.8-2.2-3.4-1-6C-56.2,40.2-54,38.7-52.3,39.5"
		/>
	<path class="st15" d="M-91.1,47.6c0.4,1,0.9,2.4,2.8,3.2c1.8,0.8,3.2,0.3,4.3-0.1c0.9-0.4,1.4-0.5,2.1-0.2c0.7,0.3,0.9,0.7,1.3,1.7
		c0.4,1,0.9,2.4,2.8,3.2c1.8,0.8,3.2,0.3,4.3-0.1c0.9-0.4,1.4-0.5,2.1-0.2c0.7,0.3,0.9,0.7,1.3,1.7c0.4,1,0.9,2.4,2.8,3.2
		c1.8,0.8,3.2,0.3,4.3-0.1c0.9-0.4,1.4-0.5,2.1-0.2c0.7,0.3,1.6,0,1.9-0.7c0.3-0.7,0-1.6-0.7-1.9c-1.8-0.8-3.2-0.3-4.3,0.1
		c-0.9,0.4-1.4,0.5-2.1,0.2c-0.7-0.3-0.9-0.7-1.3-1.7c-0.4-1-0.9-2.4-2.8-3.2c-1.8-0.8-3.2-0.3-4.3,0.1c-0.9,0.4-1.4,0.5-2.1,0.2
		c-0.7-0.3-0.9-0.7-1.3-1.7c-0.4-1-0.9-2.4-2.8-3.2c-1.8-0.8-3.2-0.3-4.3,0.1c-0.9,0.4-1.4,0.5-2.1,0.2c-0.7-0.3-0.9-0.7-1.3-1.7
		c-0.4-1-0.9-2.4-2.8-3.2c-0.7-0.3-1.6,0-1.9,0.7c-0.3,0.7,0,1.6,0.7,1.9C-91.6,46.3-91.4,46.7-91.1,47.6"/>
</g>
<g>
	<defs>
		<rect id="SVGID_33_" x="11.7" y="-0.2" width="76.7" height="100"/>
	</defs>
	<clipPath id="SVGID_34_">
		<use xlink:href="#SVGID_33_"  style="overflow:visible;"/>
	</clipPath>
	<path class="st16" d="M21.2,56.8c2,3.1,2.6,6.8,1.8,10.4l26.2,10.6c1.9-3.1,4.9-5.3,8.4-6.2c10.9-2.5,19.9-10.2,24.1-20.6
		c3.4-8.5,3.3-17.8-0.4-26.3c-3.7-8.5-10.3-15-18.9-18.4C45-0.6,25.1,8,18.1,25.6C14.1,35.9,15.2,47.5,21.2,56.8L21.2,56.8z M18,80
		c-0.6,1.5,0.1,3.3,1.7,3.9l20.4,8.2c1.5,0.6,3.3-0.1,3.9-1.7l3.6-9L21.7,71L18,80z M27,95.1c2.6,1.1,5.5,0.8,7.9-0.7l-13.1-5.3
		C22.5,91.9,24.4,94.1,27,95.1 M34.9,3c9.3-4,19.8-4.2,29.2-0.4l0.3,0.1c9.4,3.8,16.8,11,20.8,20.5c4.1,9.5,4.2,20,0.4,29.5
		c-4.7,11.6-14.8,20.2-26.9,23c-2.9,0.7-5.4,2.8-6.5,5.6L47.7,92c-1.4,3.3-5,5.1-8.4,4.2c-5.1,5-13.2,4.9-18.2-0.2
		c-2.2-2.3-3.6-5.4-3.6-8.6c-3.2-1.7-4.5-5.5-3.2-8.9l4.4-10.9c1.1-2.8,0.8-6-0.9-8.6C6.3,41.2,11.4,17.5,29.2,6
		C31,4.8,32.9,3.8,34.9,3L34.9,3z"/>
	<path class="st16" d="M25.9,32c-0.5,0-0.9-0.4-0.9-0.9c0-0.5,0.4-0.9,0.9-0.9c0.5,0,0.9,0.4,0.9,0.9C26.8,31.6,26.4,32,25.9,32"/>
	<path class="st16" d="M22.2,33.9c-0.5,0-0.9-0.4-0.9-0.9s0.4-0.9,0.9-0.9c0.5,0,0.9,0.4,0.9,0.9S22.7,33.9,22.2,33.9"/>
	<path class="st16" d="M25.9,36.7c-0.5,0-0.9-0.4-0.9-0.9c0-0.5,0.4-0.9,0.9-0.9c0.5,0,0.9,0.4,0.9,0.9
		C26.8,36.3,26.4,36.7,25.9,36.7"/>
	<path class="st16" d="M70.4,51.7c0.5,0.2,1,0.1,1.3-0.4c0.2-0.5,0.1-1-0.4-1.3c-0.5-0.2-1-0.1-1.3,0.4C69.8,50.9,70,51.4,70.4,51.7
		"/>
	<path class="st16" d="M72.9,55c0.5,0.2,1,0.1,1.3-0.4c0.2-0.5,0.1-1-0.4-1.3c-0.5-0.2-1-0.1-1.3,0.4C72.2,54.2,72.4,54.8,72.9,55"
		/>
	<path class="st16" d="M68.3,55.8c0.5,0.2,1,0.1,1.3-0.4c0.2-0.5,0.1-1-0.4-1.3c-0.5-0.2-1-0.1-1.3,0.4S67.8,55.6,68.3,55.8"/>
	<path class="st16" d="M37.1,25.8c1.7,0.8,2.1,3.4,1,6c-1.1,2.5-3.4,4-5.1,3.2c-1.7-0.8-2.1-3.4-1-6C33.1,26.5,35.4,25.1,37.1,25.8"
		/>
	<path class="st16" d="M67.7,39.5c1.7,0.8,2.1,3.4,1,6c-1.1,2.5-3.4,4-5.1,3.2c-1.7-0.8-2.1-3.4-1-6C63.7,40.2,66,38.7,67.7,39.5"/>
	<path class="st16" d="M48.4,59.1c-1.4-0.6-2.1-2.3-1.4-3.8l1.7-3.9l5.2,2.3l-1.7,3.9C51.5,59.1,49.8,59.7,48.4,59.1 M33.7,43.2
		c-0.3,0.7,0,1.6,0.7,1.9l11.7,5.2l-1.7,3.9c-1.3,2.9,0,6.2,2.9,7.5c2.9,1.3,6.2,0,7.5-2.9l2.3-5.2c0.3-0.7,0-1.6-0.7-1.9l-20.8-9.3
		C34.8,42.1,34,42.5,33.7,43.2"/>
</g>
</svg>
