<?xml version="1.0" encoding="utf-8"?>
<!-- Generator: Adobe Illustrator 24.2.0, SVG Export Plug-In . SVG Version: 6.00 Build 0)  -->
<svg version="1.1" id="Layer_1" xmlns="http://www.w3.org/2000/svg" xmlns:xlink="http://www.w3.org/1999/xlink" x="0px" y="0px"
	 viewBox="0 0 350 128" style="enable-background:new 0 0 350 128;" xml:space="preserve">
<style type="text/css">
	.st0{clip-path:url(#SVGID_2_);fill:#F07541;}
	.st1{fill:#299ABC;}
	.st2{clip-path:url(#SVGID_4_);fill:#299ABC;}
	.st3{clip-path:url(#SVGID_6_);fill:#299ABC;}
	.st4{clip-path:url(#SVGID_6_);fill:#F07541;}
</style>
<g>
	<g>
		<defs>
			<rect id="SVGID_1_" x="0.09" y="-0.38" width="350" height="128.05"/>
		</defs>
		<clipPath id="SVGID_2_">
			<use xlink:href="#SVGID_1_"  style="overflow:visible;"/>
		</clipPath>
		<path class="st0" d="M118.99,109.38c-2.74,2.93-5.82,4.4-9.23,4.4c-0.9,0-1.72-0.05-2.44-0.14c-0.76-0.09-1.5-0.28-2.23-0.57
			v-6.09c0.53,0.29,1.03,0.46,1.51,0.5c0.43,0.05,1.01,0.07,1.72,0.07c2.26,0,4.18-0.85,5.77-2.56c1.53-1.7,2.3-3.58,2.3-5.66
			c0-1.47-0.53-2.79-1.58-3.98l-8.35-9.14c-1.01-1.08-1.75-2.34-2.23-3.75c-0.53-1.42-0.79-2.93-0.79-4.53
			c0-3.69,1.34-6.98,4.03-9.86c2.7-2.87,5.77-4.31,9.23-4.31c1.24,0,2.68,0.28,4.31,0.85v5.88c-0.19-0.05-0.45-0.12-0.79-0.22
			c-0.37-0.09-0.97-0.24-1.75-0.24c-0.62,0-1.46,0-2.65,0.24c-1.18,0.24-2.47,0.98-3.82,2.49c-1.38,1.56-2.07,3.24-2.07,5.03
			c0,0.89,0.12,1.71,0.35,2.47c0.24,0.81,0.66,1.52,1.23,2.13l7.98,8.72c2.36,2.55,3.53,5.33,3.53,8.36
			C123.01,103.2,121.67,106.5,118.99,109.38 M138.18,113.29c-2.87,0-5.39-1.04-7.56-3.13c-2.16-2.08-3.24-4.82-3.24-8.22V70.69h5.84
			v9.78h6.91v5.31h-6.91v16.16c0,1.8,0.53,3.24,1.58,4.32c1.01,1.13,2.4,1.69,4.17,1.69c0.53,0,0.91-0.02,1.16-0.07v5.17
			C139.47,113.21,138.82,113.29,138.18,113.29 M155.71,85.22c-1.97,0-3.58,0.66-4.83,1.97c-1.29,1.37-1.93,3.07-1.93,5.1v20.49
			h-5.84v-20.9c0-3.31,1.25-6.15,3.74-8.51c2.5-2.36,5.35-3.55,8.56-3.55c0.63,0,1.11,0.02,1.44,0.07v5.4
			C156.62,85.25,156.24,85.22,155.71,85.22 M172.4,103.86l-3.45-3.96l13.89-10.92c-1.86-2.46-4.55-3.68-8.05-3.68
			c-2.84,0-5.43,1.23-7.79,3.68c-2.4,2.5-3.61,5.14-3.61,7.92c0,2.7,1.2,5.19,3.61,7.46c2.36,2.31,4.95,3.46,7.79,3.46
			c1.86,0,3.66-0.5,5.4-1.49c1.68-0.94,3.19-2.31,4.54-4.1l4.75,2.91c-1.35,2.5-3.27,4.44-5.77,5.81c-2.54,1.41-5.38,2.11-8.49,2.11
			c-4.9,0-9.01-1.39-12.31-4.17c-3.51-2.98-5.26-6.97-5.26-11.99c0-4.34,1.65-8.28,4.96-11.83c3.27-3.49,7.28-5.24,12.03-5.24
			c3.55,0,6.75,0.9,9.59,2.7c2.84,1.8,4.9,4.26,6.19,7.37L172.4,103.86z M219.22,112.78V94.63c0-2.78-0.86-5.04-2.59-6.79
			c-1.73-1.75-4.01-2.62-6.83-2.62c-2.84,0-5.14,0.85-6.93,2.54c-1.82,1.75-2.72,4.04-2.72,6.87v18.15h-5.84V94.72
			c0-4.5,1.39-8.09,4.18-10.78c2.78-2.7,6.49-4.05,11.15-4.05c4.71,0,8.48,1.35,11.3,4.05c2.79,2.73,4.18,6.33,4.18,10.78v18.06
			H219.22z M259.04,122.64c-3.41,3.35-7.82,5.03-13.24,5.03c-1.69,0-3.23-0.09-4.62-0.28c-1.43-0.15-2.79-0.46-4.1-0.92v-5.75
			c1.2,0.52,2.49,0.9,3.89,1.12c1.39,0.29,2.76,0.43,4.11,0.43c3.98,0,7.15-1.16,9.49-3.48c2.31-2.26,3.46-5.19,3.46-8.79V97.26
			c0-3.49-1.03-6.38-3.09-8.65c-2.11-2.21-4.75-3.32-7.93-3.32c-3.31,0-6.02,1.13-8.14,3.39c-2.11,2.27-3.16,5.13-3.16,8.58
			c0,3.02,1.11,5.53,3.32,7.51c2.16,2.03,4.84,3.04,8.05,3.04c1.35,0,2.79-0.18,4.32-0.55c1.49-0.33,2.81-0.84,3.96-1.5v5.97
			c-2.64,1.04-5.44,1.56-8.42,1.56c-5.13,0-9.33-1.56-12.6-4.69c-3.3-3.07-4.96-6.82-4.96-11.26c0-4.73,1.82-8.89,5.47-12.47
			c3.64-3.59,7.68-5.38,12.09-5.38c4.85,0,8.93,1.65,12.24,4.97c3.32,3.3,4.97,7.55,4.97,12.75v12.68
			C264.15,115.03,262.45,119.29,259.04,122.64 M280.84,113.29c-2.87,0-5.39-1.04-7.56-3.13c-2.16-2.08-3.24-4.82-3.24-8.22V70.69
			h5.84v9.78h6.91v5.31h-6.91v16.16c0,1.8,0.53,3.24,1.58,4.32c1.01,1.13,2.4,1.69,4.17,1.69c0.53,0,0.91-0.02,1.16-0.07v5.17
			C282.12,113.21,281.47,113.29,280.84,113.29 M310.39,112.78V93.86c0-2.41-0.87-4.42-2.6-6.02c-1.72-1.6-3.86-2.4-6.4-2.4
			c-2.45,0-4.68,0.9-6.7,2.7c-2.06,1.83-3.09,3.79-3.09,5.88v18.77h-5.84V64.53h5.84v19.05c3.16-2.73,6.57-4.1,10.21-4.1
			c4.09,0,7.52,1.32,10.3,3.96c2.74,2.7,4.11,6.06,4.11,10.07v19.28H310.39z"/>
	</g>
	<rect x="344.26" y="11.48" class="st1" width="5.84" height="48.26"/>
	<g>
		<defs>
			<rect id="SVGID_3_" x="0.09" y="-0.38" width="350" height="128.05"/>
		</defs>
		<clipPath id="SVGID_4_">
			<use xlink:href="#SVGID_3_"  style="overflow:visible;"/>
		</clipPath>
		<path class="st2" d="M332.44,59.73h5.91V44.78c0-5.72-1.58-10.23-4.76-13.54c-3.17-3.31-7.34-4.96-12.52-4.96
			c-4.65,0-8.71,1.77-12.16,5.31c-3.5,3.54-5.26,7.44-5.26,11.7c0,4.67,1.65,8.66,4.95,11.97c3.31,3.31,7.49,4.97,12.53,4.97
			c2.83,0,5.45-0.52,7.85-1.56v-5.88c-2.21,1.36-4.83,2.04-7.85,2.04c-3.31-0.37-6.02-1.66-8.13-3.89
			c-2.11-2.22-3.16-4.77-3.16-7.66c0-2.84,1.18-5.46,3.52-7.87c2.35-2.41,4.97-3.62,7.85-3.62c3.02,0,5.67,1.23,7.93,3.69
			c2.2,2.46,3.31,5.62,3.31,9.5V59.73z"/>
	</g>
	<rect x="293.42" y="27.41" class="st1" width="5.84" height="32.32"/>
	<g>
		<defs>
			<rect id="SVGID_5_" x="0.09" y="-0.38" width="350" height="128.05"/>
		</defs>
		<clipPath id="SVGID_6_">
			<use xlink:href="#SVGID_5_"  style="overflow:visible;"/>
		</clipPath>
		<path class="st3" d="M281.53,59.73h5.91V41.67c0-4.45-1.39-8.05-4.18-10.78c-2.82-2.7-6.59-4.05-11.3-4.05
			c-4.65,0-8.37,1.35-11.14,4.05c-2.79,2.69-4.18,6.28-4.18,10.78v18.06h5.84V41.58c0-2.83,0.91-5.12,2.73-6.87
			c1.78-1.7,4.09-2.54,6.93-2.54c2.82,0,5.1,0.87,6.83,2.62c1.73,1.75,2.59,4.01,2.59,6.79V59.73z"/>
		<path class="st3" d="M244.81,59.73h5.91V41.67c0-4.45-1.39-8.05-4.18-10.78c-2.82-2.7-6.59-4.05-11.3-4.05
			c-4.65,0-8.37,1.35-11.14,4.05c-2.79,2.69-4.18,6.28-4.18,10.78v18.06h5.84V41.58c0-2.83,0.91-5.12,2.73-6.87
			c1.78-1.7,4.09-2.54,6.93-2.54c2.82,0,5.1,0.87,6.83,2.62c1.73,1.75,2.59,4.01,2.59,6.79V59.73z"/>
		<path class="st3" d="M197.99,50.81L216,36.84c-1.29-3.11-3.35-5.57-6.19-7.37c-2.84-1.8-6.03-2.7-9.59-2.7
			c-4.75,0-8.76,1.75-12.03,5.24c-3.31,3.55-4.96,7.5-4.96,11.84c0,5.02,1.75,9.01,5.26,11.99c3.31,2.78,7.41,4.17,12.31,4.17
			c3.12,0,5.95-0.7,8.49-2.11c2.5-1.37,4.42-3.31,5.77-5.81l-4.75-2.91c-1.35,1.79-2.86,3.16-4.54,4.1
			c-1.74,0.99-3.54,1.49-5.4,1.49c-2.84,0-5.44-1.15-7.79-3.46c-2.4-2.27-3.61-4.76-3.61-7.46c0-2.78,1.2-5.42,3.61-7.93
			c2.36-2.46,4.95-3.68,7.79-3.68c3.51,0,6.19,1.23,8.06,3.68l-13.9,10.92L197.99,50.81z"/>
		<path class="st3" d="M181.3,32.17c0.53,0,0.91,0.02,1.14,0.07v-5.4c-0.33-0.05-0.81-0.07-1.44-0.07c-3.21,0-6.06,1.18-8.56,3.55
			c-2.5,2.37-3.74,5.2-3.74,8.51v20.9h5.84V39.25c0-2.03,0.64-3.73,1.93-5.11C177.72,32.83,179.33,32.17,181.3,32.17"/>
		<path class="st3" d="M146.78,50.81l18.01-13.96c-1.29-3.11-3.35-5.57-6.19-7.37c-2.84-1.8-6.03-2.7-9.59-2.7
			c-4.75,0-8.76,1.75-12.03,5.24c-3.31,3.55-4.96,7.5-4.96,11.84c0,5.02,1.75,9.01,5.26,11.99c3.31,2.78,7.41,4.17,12.31,4.17
			c3.12,0,5.95-0.7,8.49-2.11c2.5-1.37,4.42-3.31,5.77-5.81l-4.75-2.91c-1.35,1.79-2.86,3.16-4.54,4.1
			c-1.74,0.99-3.54,1.49-5.4,1.49c-2.84,0-5.43-1.15-7.79-3.46c-2.4-2.27-3.6-4.76-3.6-7.46c0-2.78,1.2-5.42,3.6-7.93
			c2.36-2.46,4.95-3.68,7.79-3.68c3.51,0,6.19,1.23,8.06,3.68l-13.89,10.92L146.78,50.81z"/>
		<path class="st3" d="M129.54,34.36c3.32-3.26,4.97-7.35,4.97-12.27c0-4.67-1.63-8.59-4.9-11.76c-3.26-3.16-7.31-4.74-12.17-4.74
			c-4.47,0-8.45,1.61-11.95,4.83c-3.55,3.25-5.33,6.96-5.33,11.12v38.32H106V22.09c0-2.97,1.25-5.57,3.74-7.79
			c2.45-2.18,5.19-3.27,8.21-3.27c2.68,0,5.1,1.14,7.26,3.41c2.17,2.27,3.25,4.73,3.25,7.37c0,3.26-0.94,5.93-2.81,8.01
			c-2.02,2.26-4.78,3.39-8.28,3.39c-1.97,0-3.58-0.09-4.83-0.28c-1.29-0.14-2.49-0.44-3.59-0.92v5.81c2.78,0.95,5.48,1.42,8.12,1.42
			C122.07,39.25,126.22,37.62,129.54,34.36"/>
		<path class="st4" d="M295.71,19.14c-1.07,0.69-3.25,1.8-6.27,1.8c-1.17,0-2.36-0.17-3.56-0.49c-3.36-0.92-5.38-2.76-6.48-4.13
			c-0.93-1.17-1.38-2.21-1.54-2.62c0.25-0.21,0.8-0.63,1.63-1.05c1.06-0.54,2.8-1.17,5.08-1.17c0.14,0,0.28,0,0.42,0.01
			c0.39,0.84,0.91,1.72,1.59,2.6C289.82,18.26,293.89,19.02,295.71,19.14 M308.76,11.46c-0.14,0-0.28,0-0.42,0.01
			c-0.39,0.84-0.91,1.72-1.59,2.6c-3.22,4.18-7.28,4.94-9.11,5.06c1.08,0.69,3.26,1.77,6.25,1.77c1.17,0,2.36-0.15,3.56-0.48
			c3.36-0.92,5.38-2.75,6.48-4.12c0.93-1.17,1.39-2.21,1.54-2.62c-0.25-0.21-0.8-0.63-1.63-1.05
			C312.78,12.1,311.04,11.46,308.76,11.46 M294.02,16.69c-1.12-1.49-2.45-4.03-2.45-7.65c0-1.11,0.12-2.12,0.33-3.03
			c-2.74-2.21-5.46-2.49-6.68-2.49c-0.15,0-0.26,0-0.36,0.01c-0.13,0.42-0.41,1.52-0.39,3.01c0.03,1.75,0.51,4.42,2.62,7.15
			c3.06,3.97,6.89,4.7,8.62,4.82C295.26,18.12,294.64,17.51,294.02,16.69 M297.66,18.51c1.75-0.13,5.54-0.88,8.58-4.82
			c2.11-2.74,2.59-5.4,2.62-7.15c0.03-1.49-0.26-2.59-0.39-3.01c-0.09,0-0.21-0.01-0.35-0.01c-1.22,0-3.93,0.29-6.67,2.48
			c0.2,0.91,0.32,1.92,0.32,3.04c0,3.75-1.33,6.28-2.45,7.75C298.71,17.57,298.11,18.13,297.66,18.51 M298.82,16.38
			c1.05-1.38,2.3-3.78,2.3-7.35c0-3.56-1.25-5.96-2.3-7.35c-0.89-1.17-1.79-1.83-2.15-2.08c-0.36,0.26-1.26,0.97-2.16,2.16
			c-1.05,1.41-2.31,3.82-2.31,7.26c0,3.44,1.26,5.84,2.31,7.26c0.89,1.2,1.79,1.91,2.16,2.17
			C297.03,18.22,297.93,17.55,298.82,16.38"/>
		<path class="st4" d="M6.64,84.63c0-1.68,0.78-3.18,2-4.18c-0.59-1.7-2.23-2.92-4.15-2.92c-2.43,0-4.4,1.94-4.4,4.33
			s1.97,4.33,4.4,4.33c0.82,0,1.59-0.22,2.24-0.61C6.68,85.27,6.64,84.95,6.64,84.63"/>
		<path class="st3" d="M94.73,81.44c-0.38,0-0.76-0.04-1.12-0.1c0.11,1.02-0.93,1.75-3.9,4.68c-4.61,4.56-6.86,5.31-6.86,5.31
			c-1.23,0.57-1.64-0.36-1.6-1.35c0.25-5.72-3.87-8.16-3.87-8.16c-0.49-9.03-6.34-11.51-7.43-12.97c-1.09-1.45-0.49-2.25-0.08-2.81
			c0.41-0.56,3.16-0.87,3.16-0.87s0.89,1.34,1.49,2.28c0.6,0.94,1.34,1.31,1.91,1.09s1.24-0.83,1.38-0.91
			c0.15-0.08,0.83,0.2,1.1,0.18c0.26-0.02,0.18-0.82,0.18-0.82s0.36,0.26,0.68,0.14c0.32-0.12,0.91-0.93,1.03-1.12
			c0.13-0.19,0.98,1.15,1.64,0.95c0.66-0.2,1.43-3.76,1.43-3.76s1.55-0.24,2.29-0.89c0.74-0.65,1.42-3.32,1.42-3.32
			c1.49,0.77,2.28-0.07,2.28-0.07s-0.47-0.46-0.59-0.82c-0.12-0.36,0.11-2.48,0.07-3.19c-0.03-0.71-0.74-8.1-8.69-8.68
			s-9.23,6.81-10.31,8.14c-1.08,1.32-3.59,2.74-6.81,3.31c-3.22,0.58-6.55,0.25-6.55,0.25c-4.96-1.92-9.38,0.83-9.38,0.83
			c-0.71,1.23-1.93,3.1-3.05,5.48c-0.37,0.79-0.8,1.76-1.04,2.59c-0.49,1.73,0.45,3.83,1.56,5.08c0.59,0.66,1.46,1.68,2.57,2.4
			c0.33,0.22,0.9,0.51,1.39,0.78c0.61,0.34,1.26,0.53,1.89,0.68c2.97,0.71,5.72-0.39,9.42,5.06c0.38,0.59,1.08,2.2,1.64,3.01
			c0.46,0.68,2.28,3.26,4.2,5.62l1.26-1.36l1.74-2.16c2.56,8.89,10.33,14.87,11.88,15.74c1.55,0.87,1.36,0.25,3.24-1.35
			c1.88-1.59,6.01-7.03,7.16-8.85c1.15-1.82,3.75-6.07,5.17-7.93c1.42-1.86,1.55-2.04,1.75-2.82c0.03-0.11,0.06-0.3,0.09-0.54
			C97.43,80.98,96.14,81.44,94.73,81.44"/>
		<path class="st4" d="M94.73,80.31c2.82,0,5.1-2.25,5.1-5.02c0-2.77-2.28-5.02-5.1-5.02c-2.82,0-5.1,2.25-5.1,5.02
			C89.63,78.06,91.91,80.31,94.73,80.31"/>
		<path class="st4" d="M72.19,98.5c-1-1.88-3.45-4.56-5.77-7.18c-2.31-2.62-5.05-6.44-5.57-7.27c-0.53-0.83-0.46-0.92-1.2-2.34
			c-3.19-5.66-7.89-4.6-10.09-5.33c-2.21-0.73-3.93-2.24-5.11-3.56c-3.19-3.59-1.85-6.89-1.56-7.6c0.29-0.71,2.23-4.25,3.84-7
			c0.63-1.12,2.32-4.19,0.44-7.16c-1.88-2.97-6.84-3.51-8.26-2.65c-1.43,0.86-1.46,2.53-1.46,2.53c-4.7-0.73-6.83,0.15-8.44,0.96
			c-1.61,0.8-3.06,2.49-3.64,3.8s-0.19,1.85-0.19,1.85c-0.28,1.59-0.24,2.14,0.06,3.93c0.3,1.79,0.36,1.65,0.69,2.12
			c0.33,0.48,0.22,1.02,0.11,1.7c-0.11,0.68-0.57,2.04-0.69,2.61c-0.12,0.57,0.62,0.54,0.83,0.54c0.22-0.01,0.42-0.12,0.57,0.08
			c0.15,0.2,0.42,1.02,0.42,1.02c0.53,0.04,0.51,0.24,0.45,0.52c-0.07,0.28,0.41,0.41,0.69,0.52c0.29,0.11,0.36,0.46,0.36,0.46
			c0.16,0.32,0.17,1.1,0.73,1.52c0.56,0.42,1.53,0.19,2.47-0.36c0.94-0.55,1.53-0.45,1.96-0.48c0.44-0.03,0.49,0.05,0.51,0.47
			c0.02,0.43-0.06,1.66-0.14,2.33c-0.08,0.67-0.34,0.75-1.17,1.54c-0.84,0.79-4.48,2.97-4.48,2.97s-0.15,0.02-1.31,0.15
			c-2.12-0.23-4.11,1.33-5.22,4.18c-1.11,2.85-1.18,4.81-1.2,5.47c-0.02,0.66-0.34,1.26-1.27,2.82c-0.94,1.56-1.1,5.11-1.12,5.38
			c-0.02,0.27-0.92,2.48-1.06,2.5c-1.63-0.21-3.73-2.97-4.21-3.66c-0.35-0.5-2.64-4.46-3.86-6.58c-1.61-0.95-2.68-2.67-2.68-4.65
			c0-1.71,0.81-3.23,2.06-4.22c-0.01-0.05-0.02-0.11-0.04-0.16c-0.08-0.33-0.84-0.39-0.84-0.39c-0.63-0.76-1.39-0.23-1.39-0.23
			c-0.42-0.56-0.89-0.19-1.13-0.02c-0.24,0.16-1.39,1.3-2.2,2.04c-0.8,0.74-0.78,1.41-0.43,1.85c0.34,0.44,0.73,1.21,0.73,1.21
			l8.86,18.55c0,0,1.96,5.55,3.33,6.23c1.37,0.68,3.03-0.31,3.64-0.64c0.61-0.33,0.83-0.85,1.89-2.68c1.94-3.58,4.9-10.53,4.9-10.53
			c3.63,5.6,0.76,17.1,0.76,17.1H50.3c0,0-0.5-0.51-0.94-1.05c-0.43-0.54-0.5-0.97-0.53-1.25c-0.02-0.28-0.41-5.1-0.46-6.7
			c-0.05-1.6,0.22-2.03,0.53-2.78c0.31-0.75,3.96-9.06,4.89-11.14c0.94-2.08,1.94-0.94,2.95,0.05c1.01,0.99,7.96,8.75,9.06,10.71
			c1.1,1.96-1.08,4.65-2.11,5.92c-1.03,1.27-5.63,6.24-5.63,6.24h6.49c3.25-2.98,6.82-7.3,8.04-8.98
			C73.82,102.1,73.19,100.37,72.19,98.5"/>
		<path class="st4" d="M12.14,88.96c2.43,0,4.4-1.94,4.4-4.33c0-2.39-1.97-4.33-4.4-4.33s-4.4,1.94-4.4,4.33
			C7.75,87.02,9.72,88.96,12.14,88.96"/>
	</g>
</g>
</svg>
